<svg xmlns="http://www.w3.org/2000/svg" style="display: none;">
    <symbol id="proto" viewBox="0 0 100 100">
        <g>
            <path d="M31.2,34.4l4.1,4.1l7.7-7.7l2.9,2.9V24H23.5v18.1L31.2,34.4z M28.8,25.8c2,0,3.7,1.7,3.7,3.7c0,2-1.7,3.7-3.7,3.7   s-3.7-1.7-3.7-3.7C25.1,27.5,26.8,25.8,28.8,25.8z"/>
            <polygon points="45.9,36.5 43,33.6 35.3,41.3 31.2,37.2 23.5,44.9 23.5,46.9 45.9,46.9  "/>
            <polygon points="22.5,44.5 22.5,44.5 22.5,44.5  "/>
            <circle cx="28.8" cy="29.5" r="1.7"/>
            <polygon points="77.5,36.5 74.6,33.6 66.9,41.3 62.7,37.2 55.1,44.9 55.1,46.9 77.5,46.9  "/>
            <path d="M62.7,34.4l4.1,4.1l7.7-7.7l2.9,2.9V24H55.1v18.1L62.7,34.4z M60.4,25.8c2,0,3.7,1.7,3.7,3.7c0,2-1.7,3.7-3.7,3.7   s-3.7-1.7-3.7-3.7C56.7,27.5,58.3,25.8,60.4,25.8z"/>
            <polygon points="54.1,44.5 54.1,44.5 54.1,44.5  "/>
            <circle cx="60.4" cy="29.5" r="1.7"/>
            <rect x="23.5" y="64.6" width="34.5" height="2.8"/>
            <rect x="23.5" y="73.2" width="43.2" height="2.8"/>
            <rect x="23.5" y="56" width="53.9" height="2.8"/>
        </g>
    </symbol>
    <symbol id="constructor" viewBox="0 0 32 32">
        <path d="M 24.5 3 A 0.50005 0.50005 0 0 0 24 3.5 L 24 5.5 L 24 6.0019531 C 23.991786 6.0018757 23.984808 6 23.976562 6 C 18.659149 6.0005 13.340434 6 8.0234375 6 C 6.357339 6 5 7.3572375 5 9.0234375 L 5 22 L 3.5 22 A 0.50004997 0.50004997 0 0 0 3 22.5 L 3 28.5 A 0.50004997 0.50004997 0 0 0 3.5 29 L 21.5 29 A 0.50004997 0.50004997 0 0 0 22 28.5 L 22 26 L 23.976562 26 C 25.641922 26 27 24.646569 27 22.980469 L 27 20.619141 L 28.945312 16.726562 A 0.50005 0.50005 0 0 0 28.947266 16.724609 A 0.50005 0.50005 0 0 0 28.957031 16.699219 A 0.50005 0.50005 0 0 0 28.966797 16.679688 A 0.50005 0.50005 0 0 0 28.966797 16.677734 A 0.50005 0.50005 0 0 0 28.982422 16.632812 A 0.50005 0.50005 0 0 0 28.982422 16.630859 A 0.50005 0.50005 0 0 0 29 16.482422 L 29 5.5 L 29 3.5 A 0.50005 0.50005 0 0 0 28.5 3 L 24.5 3 z M 25 4 L 28 4 L 28 5 L 25 5 L 25 4 z M 25 6 L 28 6 L 28 16 L 25 16 L 25 6 z M 8.0234375 7 C 13.340096 7 18.65891 7.0005 23.976562 7 L 24 7 L 24 16.5 A 0.50005 0.50005 0 0 0 24 16.513672 L 24 16.521484 A 0.50005 0.50005 0 0 0 24.001953 16.548828 A 0.50005 0.50005 0 0 0 24.052734 16.746094 L 26 20.642578 L 26 22.980469 C 26 24.109569 25.106381 25 23.976562 25 L 22 25 L 22 22.523438 A 0.50005 0.50005 0 0 0 22 22.5 A 0.50004997 0.50004997 0 0 0 21.5 22 L 6 22 L 6 9.0234375 C 6 7.8943375 6.8943594 7 8.0234375 7 z M 8.5 8 A 0.50004997 0.50004997 0 0 0 8 8.5 L 8 12.5 A 0.50004997 0.50004997 0 0 0 8.5 13 L 12 13 L 12 16.5 A 0.50004997 0.50004997 0 0 0 12.5 17 L 16 17 L 16 20.5 A 0.50004997 0.50004997 0 0 0 16.5 21 L 20.5 21 A 0.50004997 0.50004997 0 0 0 21 20.5 L 21 16.5 A 0.50004997 0.50004997 0 0 0 20.5 16 L 17 16 L 17 13 L 20.5 13 A 0.50004997 0.50004997 0 0 0 21 12.5 L 21 8.5 A 0.50004997 0.50004997 0 0 0 20.5 8 L 16.5 8 A 0.50004997 0.50004997 0 0 0 16 8.5 L 16 12 L 13 12 L 13 8.5 A 0.50004997 0.50004997 0 0 0 12.5 8 L 8.5 8 z M 9 9 L 12 9 L 12 12 L 9 12 L 9 9 z M 17 9 L 20 9 L 20 12 L 17 12 L 17 9 z M 13 13 L 16 13 L 16 16 L 13 16 L 13 13 z M 17 17 L 20 17 L 20 20 L 17 20 L 17 17 z M 25.308594 17 L 27.691406 17 L 26.5 19.382812 L 25.308594 17 z M 4 23 L 5 23 L 5 27 L 6 27 L 6 23.023438 L 7 23.023438 L 7 25 L 8 25 L 8 23.023438 L 9 23.023438 L 9 27 L 10 27 L 10 23.023438 L 11 23.023438 L 11 25 L 12 25 L 12 23.023438 L 13 23.023438 L 13 27 L 14 27 L 14 23.023438 L 15 23.023438 L 15 25 L 16 25 L 16 23.023438 L 17 23.023438 L 17 27 L 18 27 L 18 23.023438 L 19 23.023438 L 19 25 L 20 25 L 20 23.023438 L 21 23.023438 L 21 25.5 L 21 28 L 4 28 L 4 23 z "/>
    </symbol>
    <symbol id="home" viewBox="0 0 100 100">
        <path d="M25,90.4h13.8c1.1,0,2-0.9,2-2V65.2c0-1.7,1.3-3,3-3h12.4c1.7,0,3,1.3,3,3l0,23.2c0,1.1,0.9,2,2,2H75c6.6,0,12-5.4,12-12   V45.9c0-2.2-0.9-4.4-2.5-6L54.7,11.5c-2.7-2.6-6.8-2.6-9.5,0L15.6,39.9c-1.6,1.6-2.5,3.8-2.5,6v32.5C13,85,18.4,90.4,25,90.4z    M17,45.9c0-1.2,0.5-2.3,1.3-3.1L48,14.4c1.1-1.1,2.8-1.1,3.9,0l29.7,28.4c0.8,0.8,1.3,2,1.3,3.1v32.5c0,4.4-3.6,8-8,8H63.2l0-21.2   c0-3.9-3.1-7-7-7H43.8c-3.9,0-7,3.1-7,7v21.2H25c-4.4,0-8-3.6-8-8V45.9z"/>
    </symbol>
    <symbol id="docs" viewBox="0 0 100 100">
        <g>
            <path fill="none"
                  d="M82.274,8.636H27.729v70.909h54.546V8.636z M64.09,53.183H36.819c-1.004,0-1.815-0.816-1.815-1.819   c0-1.004,0.811-1.82,1.815-1.82H64.09c1.005,0,1.821,0.816,1.821,1.82C65.911,52.367,65.095,53.183,64.09,53.183z M73.183,44.091   H36.819c-1.004,0-1.815-0.814-1.815-1.817c0-1.004,0.811-1.82,1.815-1.82h36.364c1.003,0,1.817,0.816,1.817,1.82   C75,43.277,74.186,44.091,73.183,44.091z M73.183,35.001H36.819c-1.004,0-1.815-0.813-1.815-1.817s0.811-1.82,1.815-1.82h36.364   c1.003,0,1.817,0.816,1.817,1.82S74.186,35.001,73.183,35.001z"/>
            <path fill="none"
                  d="M21.484,79.545h0.126h2.481V8.638h-1.241c-2.918,0-5.123,2.36-5.123,5.49v66.469   C18.823,79.931,20.101,79.545,21.484,79.545z"/>
            <path fill="none"
                  d="M21.61,83.182c-0.037,0.003-0.086,0.009-0.135,0.015l-0.199,0.019c-1.447,0.135-2.671,1.17-3.287,2.78   l-0.247,1.022c-0.004,0.087-0.011,0.173-0.011,0.262c0,2.371,1.578,4.083,3.754,4.083h60.79v-8.182H25.91H21.61z M35.91,85.907   h33.636c1.002,0,1.818,0.816,1.818,1.82c0,1.004-0.816,1.82-1.818,1.82H35.91c-1.003,0-1.817-0.816-1.817-1.82   C34.093,86.723,34.907,85.907,35.91,85.907z"/>
            <path d="M85.91,6.818C85.91,5.814,85.095,5,84.092,5H25.91c-0.004,0-0.008,0.001-0.012,0.001h-3.049   c-4.912,0-8.76,4.009-8.76,9.127v72.724c0,0.058,0.01,0.112,0.016,0.169c-0.003,0.09-0.013,0.177-0.013,0.268   c0,4.397,3.176,7.711,7.391,7.711h62.608c1.003,0,1.818-0.813,1.818-1.82V81.365c0-0.001,0-0.001,0-0.002c0,0,0-0.001,0-0.002   V6.818z M27.729,8.636h54.546v70.909H27.729V8.636z M22.849,8.638h1.241v70.907H21.61h-0.126c-1.383,0-2.661,0.385-3.757,1.052   V14.128C17.727,10.999,19.931,8.638,22.849,8.638z M82.274,91.364h-60.79c-2.176,0-3.754-1.712-3.754-4.083   c0-0.089,0.007-0.175,0.011-0.262l0.247-1.022c0.616-1.611,1.84-2.645,3.287-2.78l0.199-0.019c0.049-0.006,0.098-0.012,0.135-0.015   h4.3h56.364V91.364z"/>
            <path d="M73.183,31.364H36.819c-1.004,0-1.815,0.816-1.815,1.82s0.811,1.817,1.815,1.817h36.364c1.003,0,1.817-0.813,1.817-1.817   S74.186,31.364,73.183,31.364z"/>
            <path d="M73.183,40.454H36.819c-1.004,0-1.815,0.816-1.815,1.82c0,1.003,0.811,1.817,1.815,1.817h36.364   c1.003,0,1.817-0.814,1.817-1.817C75,41.27,74.186,40.454,73.183,40.454z"/>
            <path d="M64.09,49.544H36.819c-1.004,0-1.815,0.816-1.815,1.82c0,1.003,0.811,1.819,1.815,1.819H64.09   c1.005,0,1.821-0.816,1.821-1.819C65.911,50.36,65.095,49.544,64.09,49.544z"/>
            <path d="M35.91,89.546h33.636c1.002,0,1.818-0.816,1.818-1.82c0-1.004-0.816-1.82-1.818-1.82H35.91   c-1.003,0-1.817,0.816-1.817,1.82C34.093,88.73,34.907,89.546,35.91,89.546z"/>
        </g>
    </symbol>
</svg>